<svg viewBox="0 0 40 24" role="presentation" aria-hidden="true" focusable="false"><path d="m39 21.5c0 .83-.67 1.5-1.5 1.5h-35c-.83 0-1.5-.67-1.5-1.5v-19c0-.83.67-1.5 1.5-1.5h35c .83 0 1.5.67 1.5 1.5z" fill="#fff"></path><path d="m32 15.38v7.62h-24v-22h24v13.34c.11.12.17.27.17.52 0 .22-.07.38-.17.51z" fill="#1c92d1"></path><path d="m8 11.24h1.14l.26-.6h.58l.26.6h2.24v-.46l.2.46h1.16l.2-.46v.46h5.58v-.98h.11c.08 0 .1.01.1.13v.85h2.88v-.23c.23.12.59.23 1.07.23h1.21l.26-.6h.58l.25.6h2.34v-.57l.35.57h1.87v-3.74h-1.85v.44l-.26-.44h-1.9v.44l-.24-.44h-2.57c-.43 0-.81.06-1.11.22v-.22h-1.77v.22c-.19-.17-.46-.22-.75-.22h-6.48l-.43.97-.45-.97h-2.04v.44l-.22-.44h-1.74l-.81 1.78-.87 1.97h.87zm22.04-.53h-.95l-1.27-2.02v2.02h-1.36l-.26-.6h-1.39l-.25.6h-.78c-.32 0-.74-.07-.97-.3s-.36-.54-.36-1.03c0-.4.07-.76.36-1.05.22-.21.55-.31 1.01-.31h.65v.58h-.63c-.24 0-.38.03-.51.16-.11.11-.19.33-.19.61 0 .29.06.5.18.63.1.11.29.14.47.14h.3l.94-2.11h1l1.13 2.54v-2.54h1.02l1.17 1.87v-1.87h.68v2.68zm-7.9 0h-.68v-2.69h.68zm-1.07-1.96c0 .43-.3.65-.47.72.15.05.27.15.33.23.09.13.11.25.11.49v.53h-.67v-.34c0-.16.02-.39-.11-.52-.1-.09-.25-.11-.49-.11h-.72v.98h-.67v-2.69h1.54c.34 0 .59.01.81.13.21.12.34.3.34.59zm-3.14 1.96h-2.23v-2.69h2.23v.56h-1.56v.48h1.52v.55h-1.52v.54h1.56zm-2.73 0h-.68v-2.1l-.97 2.1h-.59l-.97-2.1v2.1h-1.36l-.26-.6h-1.39l-.26.6h-.72l1.2-2.69h.99l1.14 2.54v-2.54h1.09l.87 1.82.8-1.82h1.11zm10.78-1.16-.46-1.07-.46 1.07zm-5.78-.43c-.09.05-.2.06-.33.06h-.81v-.6h.82c.12 0 .24.01.32.05.09.04.14.12.14.24s-.05.21-.14.26zm-10.06.43-.46-1.07-.45 1.07zm11.07 4.36c0 .75-.58.9-1.16.9h-.83v.9h-1.3l-.82-.89-.85.89h-2.64v-2.69h2.68l.82.88.85-.88h2.13c.53 0 1.12.14 1.12.88zm-5.31 1.24h-1.64v-.53h1.47v-.55h-1.47v-.49h1.67l.73.78zm2.65.32-1.02-1.09 1.02-1.06zm1.53-1.2h-.86v-.68h.87c.24 0 .41.09.41.33 0 .23-.16.35-.42.35zm4.5-1.24h2.23v.56h-1.56v.49h1.52v.55h-1.52v.53h1.56v.56h-2.23zm-.84 1.44c.15.05.27.15.33.23.09.13.11.25.11.49v.53h-.67v-.34c0-.16.02-.4-.11-.53-.1-.1-.25-.12-.49-.12h-.71v.98h-.67v-2.69h1.54c.34 0 .58.01.8.13.21.12.34.29.34.6 0 .43-.3.65-.47.71zm-.4-.33c-.09.05-.2.06-.33.06h-.81v-.6h.82c.12 0 .24 0 .32.05.09.04.14.13.14.24s-.05.21-.14.26zm6.02.17c.13.13.2.29.2.57 0 .58-.38.85-1.05.85h-1.3v-.58h1.29c.13 0 .22-.02.27-.07.05-.04.08-.1.08-.18s-.04-.14-.08-.18c-.05-.04-.12-.06-.24-.06-.62-.02-1.41.02-1.41-.83 0-.39.25-.8.95-.8h1.34v.57h-1.22c-.12 0-.2 0-.27.05-.07.04-.1.11-.1.19 0 .1.06.17.15.2.07.02.15.03.26.03l.36.01c.36.01.61.07.76.22zm2.66 1.05c-.16.23-.48.37-.91.37h-1.29v-.58h1.28c.13 0 .22-.02.27-.07.05-.04.08-.1.08-.18s-.03-.14-.08-.18-.12-.06-.24-.06c-.63-.02-1.41.02-1.41-.83 0-.39.26-.8.96-.8h1.33v-.53h-1.23c-.37 0-.64.09-.84.22v-.22h-1.83c-.29 0-.63.07-.8.22v-.22h-3.26v.22c-.26-.18-.7-.22-.9-.22h-2.15v.22c-.21-.19-.66-.22-.94-.22h-2.41l-.55.57-.52-.57h-3.6v3.75h3.53l.57-.58.53.58h2.18v-.88h.21c.29 0 .63-.01.93-.13v1.01h1.79v-.98h.09c.11 0 .12 0 .12.11v.87h5.45c.35 0 .71-.09.91-.24v.24h1.73c.36 0 .71-.05.98-.17v-.72zm0-1.74h-1.22c-.12 0-.2 0-.27.05-.07.04-.1.11-.1.19 0 .1.06.17.15.2.07.02.15.03.26.03l.36.01c.36.01.58.06.75.2.03.02.03.03.05.06z" fill="#fff"></path><path d="m2.5 0h35c1.38 0 2.5 1.12 2.5 2.5v19c0 1.38-1.12 2.5-2.5 2.5h-35c-1.38 0-2.5-1.12-2.5-2.5v-19c0-1.38 1.12-2.5 2.5-2.5zm0 1c-.83 0-1.5.67-1.5 1.5v19c0 .83.67 1.5 1.5 1.5h35c .83 0 1.5-.67 1.5-1.5v-19c0-.83-.67-1.5-1.5-1.5z" fill="#dbdbdb"></path></svg>