<svg viewBox="0 0 40 24" role="presentation" aria-hidden="true" focusable="false" ><path d="m39 2.5v19c0 .83-.67 1.5-1.5 1.5h-35c-.83 0-1.5-.67-1.5-1.5v-19c0-.83.67-1.5 1.5-1.5h35c .83 0 1.5.67 1.5 1.5z" fill="#010101"></path><path d="m28.98 20.05c.03-.32.31-.55.63-.53s.56.29.56.6c-.01.32-.26.57-.58.58-.17.01-.33-.06-.45-.19s-.17-.29-.15-.46zm1.54 0v-1.75h-.38v1.02c-.15-.19-.38-.3-.62-.29-.53.04-.94.49-.94 1.02s.41.98.94 1.02c.24.01.47-.09.62-.29v.24h.38zm-5.4 0c .03-.32.31-.55.63-.53s.56.29.56.6c-.01.32-.26.57-.58.58-.17.01-.33-.06-.45-.19s-.17-.29-.15-.46zm1.54 0v-.98h-.38v.24c-.15-.19-.38-.3-.62-.29-.53.04-.94.49-.94 1.02s.41.98.94 1.02c.24.01.47-.09.62-.29v.24h.38zm1.48-1.02c-.21 0-.41.1-.52.29v-.24h-.38v1.96h.38v-1.1c0-.33.16-.53.42-.53.09 0 .18.02.26.04l.12-.37c-.09-.02-.19-.04-.28-.04zm-14.78 1.02c.03-.32.31-.55.63-.53s.56.29.56.6c-.01.32-.26.57-.58.58-.17.01-.33-.06-.45-.19s-.17-.29-.15-.46zm1.54 0v-.98h-.38v.24c-.15-.19-.38-.3-.62-.29-.53.04-.94.49-.94 1.02s.41.98.94 1.02c.24.01.47-.09.62-.29v.24h.38zm5.18-.65c.13 0 .26.04.36.14.09.09.15.22.14.35h-1.04c.03-.28.26-.49.54-.49zm.02-.37c-.26 0-.52.1-.7.3s-.27.46-.24.72c-.02.27.08.53.26.73.19.19.45.3.72.29.28.01.56-.09.78-.26l-.2-.29c-.16.13-.36.2-.56.2-.3.01-.55-.21-.58-.51h1.42v-.16c.03-.26-.05-.52-.22-.71s-.42-.31-.68-.31zm2.68 1.02c-.02.27.08.54.27.73s.46.3.73.28c.25.01.49-.07.68-.22l-.2-.31c-.14.12-.32.18-.5.18-.34-.03-.6-.31-.6-.65s.26-.62.6-.65c.18 0 .36.07.5.18l.2-.31c-.19-.16-.43-.24-.68-.22-.27-.03-.54.07-.73.26s-.29.45-.27.72zm-5.8-.81c-.23-.15-.51-.22-.78-.2-.48 0-.78.22-.78.61 0 .33.22.51.64.57l.2.02c.22.04.36.12.36.22 0 .14-.16.24-.46.24-.23 0-.45-.07-.64-.2l-.2.31c.24.16.53.25.82.24.56 0 .86-.26.86-.63 0-.35-.24-.51-.66-.57l-.2-.02c-.18-.02-.34-.08-.34-.2 0-.14.16-.24.38-.24.21.01.41.07.6.16zm5.38-.2c-.21 0-.41.1-.52.29v-.24h-.38v1.96h.38v-1.1c0-.33.16-.53.42-.53.09 0 .18.02.26.04l.12-.37c-.09-.02-.19-.04-.28-.04zm-3.56.06h-.7v-.59h-.38v.59h-.4v.35h.4v.92c0 .45.16.71.64.71.18 0 .36-.05.52-.14l-.12-.35c-.11.07-.23.1-.36.1-.2 0-.3-.12-.3-.33v-.94h.7zm-6.24 1.94v-1.22c.02-.2-.05-.41-.19-.56s-.34-.23-.55-.22c-.27-.01-.53.12-.68.35-.13-.23-.38-.36-.64-.35-.23-.01-.45.1-.58.29v-.24h-.38v1.96h.38v-1.12c-.02-.13.03-.27.12-.37s.23-.15.36-.14c.28 0 .44.18.44.51v1.12h.38v-1.12c-.02-.13.03-.27.12-.37s.23-.15.36-.14c.28 0 .44.18.44.51v1.12z" fill="#fff"></path><path d="m16.54 4.24h6.94v11.53h-6.94z" fill="#f26122"></path><path d="m19.98 15.77c-1.26 1.01-2.82 1.57-4.44 1.57-1.93-.02-3.77-.8-5.12-2.17-1.35-1.38-2.1-3.23-2.08-5.16-.02-1.93.73-3.78 2.08-5.16s3.19-2.16 5.12-2.17c1.62 0 3.18.55 4.44 1.57-1.73 1.41-2.74 3.53-2.74 5.76 0 2.24 1.01 4.35 2.74 5.76z" fill="#ea1d25"></path><path d="m31.64 10c .02 1.93-.73 3.78-2.08 5.16s-3.19 2.16-5.12 2.17c-1.62 0-3.18-.55-4.44-1.57 1.73-1.41 2.74-3.53 2.74-5.76 0-2.24-1.01-4.35-2.74-5.76 1.26-1.01 2.82-1.57 4.44-1.57 1.93.02 3.77.8 5.12 2.17s2.1 3.23 2.08 5.16z" fill="#f69e1e"></path><path d="m2.5 0h35c1.38 0 2.5 1.12 2.5 2.5v19c0 .66-.26 1.3-.73 1.77s-1.1.73-1.77.73h-35c-.66 0-1.3-.26-1.77-.73s-.73-1.1-.73-1.77v-19c0-1.38 1.12-2.5 2.5-2.5zm0 1c-.83 0-1.5.67-1.5 1.5v19c0 .83.67 1.5 1.5 1.5h35c .83 0 1.5-.67 1.5-1.5v-19c0-.83-.67-1.5-1.5-1.5z" fill="#dcdbdb"></path></svg>