<svg viewBox="0 0 24 24" role="presentation" aria-hidden="true" focusable="false" ><path d="m21.5 5h-5.5v-1.5c0-.83-.67-1.5-1.5-1.5h-5c-.84 0-1.5.67-1.5 1.5v1.5h-5.5a2.5 2.5 0 0 0 -2.5 2.49v12.01a2.5 2.5 0 0 0 2.5 2.5h19a2.5 2.5 0 0 0 2.5-2.49v-12.02a2.5 2.5 0 0 0 -2.5-2.49zm-18.5 5v11h-.5c-.83 0-1.5-.67-1.5-1.49v-12.02c0-.82.68-1.49 1.5-1.49h.5zm2 11h-1v-15h1zm4-17.5c0-.28.22-.5.5-.5h4.99c.28 0 .5.22.5.5v1.5h-5.99zm9 17.5h-12v-15h12zm2 0h-1v-15h1zm3-1.49c0 .82-.68 1.49-1.5 1.49h-.5v-15h .5c.83 0 1.5.67 1.5 1.49v12.01z" fill-rule="evenodd"></path></svg>