<svg viewBox="0 0 24 24" role="presentation" aria-hidden="true" focusable="false" ><path d="m11.4 10.7c1.1 0 1.9-.9 1.9-1.9s-.9-1.9-1.9-1.9-1.9.9-1.9 1.9.9 1.9 1.9 1.9zm4.9 2v1.3c0 .2-.1.3-.3.3s-.3-.1-.3-.3v-1.3h-1.4c-.3 0-.5.2-.5.5v6c0 .5-.4.8-.8.8-.5 0-.8-.4-.8-.8v-1.9c0-.3-.2-.5-.5-.5h-.2c-.3 0-.5.2-.5.5v1.9c0 .5-.4.8-.8.8-.5 0-.8-.4-.8-.8v-3-3.1c0-.4-.2-.7-.5-.9l-2.2-1.3c-.4-.2-.5-.7-.3-1.1s.7-.5 1.1-.3l1.8 1c.6.4 1.4.6 2.1.6h4.6v-3c-1.2-1.1-1.8-2.1-1.8-3 0-1.1.9-2.1 2.1-2.1s2.1.9 2.1 2.1c0 .9-.6 1.9-1.8 3v3c.4 0 .8.4.8.8s-.3.8-.8.8zm-.1-8.7c-.6.2.2.7.4 1.5s-.4 1.3 0 1.2.8-.9.7-1.6-.5-1.2-1.1-1z"></path></svg>