<svg viewBox="0 0 24 24" role="presentation" aria-hidden="true" focusable="false"><path d="m6.5 5a2.5 2.5 0 1 0 0 5 2.5 2.5 0 0 0 0-5zm0 4a1.5 1.5 0 1 1 0-3 1.5 1.5 0 0 1 0 3zm10.15-4.09a125.01 125.01 0 0 0 -1.43-.45 217.8 217.8 0 0 0 -3.98-1.21c-2.68-.78-4.51-1.23-5.24-1.25-3.43.04-6.01 2.28-6.01 5.5 0 2 .98 3.62 2.53 4.57 0 .02 0 .04.01.06.19.68.31 1.6.39 2.7a40.42 40.42 0 0 1 .05 4.17 2.01 2.01 0 0 0 2.03 2h2.03c1.25 0 1.97-.73 1.97-1.98 0-.07 0-.14 0-.31-.03-1.86.16-3.27.89-4.81a7.75 7.75 0 0 1 1-1.59.5.5 0 0 0 .09-.17 71.83 71.83 0 0 0 1.53-.4 97.27 97.27 0 0 0 4.15-1.24.5.5 0 0 0 .34-.48v-4.65a.5.5 0 0 0 -.35-.48zm-7.67 8.57c-.81 1.71-1.01 3.26-.98 5.25v.29c0 .7-.28.98-.97.98h-2.03c-.6 0-1.03-.48-1.03-.98a41.35 41.35 0 0 0 -.05-4.26 18.74 18.74 0 0 0 -.26-2.15c.71.25 1.5.39 2.33.39.85 0 2.05-.19 3.53-.51-.21.32-.39.65-.55.99zm7.02-6.98v3.17a96.43 96.43 0 0 1 -3.76 1.11 69.77 69.77 0 0 1 -1.72.45c-1.98.49-3.55.76-4.52.76-2.89 0-5-1.85-5-4.5 0-2.63 2.11-4.47 5.01-4.5.59.01 2.41.46 4.97 1.21a216.71 216.71 0 0 1 4.99 1.53l.04.01v.75zm7.92 3.1a1.91 1.91 0 0 1 -.42.46 1.97 1.97 0 0 1 -1.25.44c-.47 0-.8-.15-1.51-.57-.54-.33-.77-.43-.99-.43-.3 0-.55.05-.75.13a.91.91 0 0 0 -.19.09.5.5 0 0 1 -.62-.78c.09-.07.24-.16.44-.24a3.01 3.01 0 0 1 1.12-.2c.47 0 .8.15 1.51.57.54.33.77.43.99.43a.98.98 0 0 0 .63-.22.98.98 0 0 0 .2-.21.5.5 0 0 1 .85.53zm-5.81-2.95a.5.5 0 0 1 .08-.7c.09-.07.24-.16.44-.24a3.01 3.01 0 0 1 1.12-.2c.47 0 .8.15 1.51.57.54.33.77.43.99.43a.98.98 0 0 0 .63-.22.98.98 0 0 0 .2-.21.5.5 0 0 1 .85.53 1.91 1.91 0 0 1 -.42.46 1.97 1.97 0 0 1 -1.25.44c-.47 0-.8-.15-1.51-.57-.54-.33-.77-.43-.99-.43-.3 0-.55.05-.75.13a.91.91 0 0 0 -.19.09.5.5 0 0 1 -.7-.08z" fill-rule="evenodd"></path></svg>