<svg viewBox="0 0 24 24" role="presentation" aria-hidden="true" focusable="false" ><path d="m23.99 18.38-.5-2a .5.5 0 0 0 -.49-.38h-22a .5.5 0 0 0 -.49.38l-.5 2a .5.5 0 0 0 .49.62h23a .5.5 0 0 0 .49-.62zm-1.13-.38h-21.72l.25-1h21.22zm-21.36-3h21a .5.5 0 0 0 .5-.53c-.21-3.22-1.22-5.47-3-5.47a4911.8 4911.8 0 0 0 -8.8 0h-1.71c-.2 0-.26-.08-.19-.27a9.59 9.59 0 0 1 .17-.48c.13-.34.27-.68.43-1 .41-.79.82-1.25 1.1-1.25h10.5c.87 0 1.43-.7 1.4-1.52s-.64-1.48-1.55-1.48h-11.35c-3.84 0-7.29 4.4-8.99 11.38a.5.5 0 0 0 .49.62zm8.5-11h11.35c.35 0 .55.21.56.52.01.29-.14.48-.4.48h-10.51c-.8 0-1.42.68-1.99 1.8a10.74 10.74 0 0 0 -.65 1.61c-.31.82.23 1.59 1.13 1.59h1.71a33801.74 33801.74 0 0 1 8.8 0c .94 0 1.71 1.58 1.95 4h-19.8c1.65-6.21 4.7-10 7.85-10zm5 8a1 1 0 1 1 2 0 1 1 0 0 1 -2 0zm3 0a1 1 0 1 1 2 0 1 1 0 0 1 -2 0z" fill-rule="evenodd"></path></svg>