<svg viewBox="0 0 24 24" role="presentation" aria-hidden="true" focusable="false"><path d="m5.5 5h-.5v8h14v-8zm12.5 7h-12v-6h12zm5.9 6.69-.04-.05-.11-.14-.4-.51-1.2-1.55-1.15-1.47v-10.97a1 1 0 0 0 -.99-1h-16.02c-.55 0-.99.45-.99 1v10.95l-.19.24c-.6.76-1.2 1.53-1.76 2.26l-.16.21c-.29.37-.55.72-.79 1.04l-.1.13v.17c0 1.35.65 2 2 2h20c1.17 0 2-.71 2-2v-.17l-.11-.14zm-19.9-14.69h16.01c-.01 0-.01 7.92-.01 10h-16zm18 16h-20c-.73 0-.96-.2-.99-.85.21-.28.43-.56.66-.87l.16-.21a229.93 229.93 0 0 1 2.33-2.98l.07-.09h15.51l1.6 2.06 1.2 1.55a4708182.18 4708182.18 0 0 1 .42.54c-.05.59-.38.86-.98.86zm-7.52-3.62a.5.5 0 0 0 -.48-.38h-4a .5.5 0 0 0 -.49.38l-.5 2a .5.5 0 0 0 .49.62h5a .5.5 0 0 0 .49-.62l-.5-2zm-4.34 1.62.25-1h3.22l.25 1z" fill-rule="evenodd"></path></svg>