<svg viewBox="0 0 24 24" role="presentation" aria-hidden="true" focusable="false" style="fill: rgb(217, 57, 0);" ><path d="m19.2824314 18.7231393c.0580699.2873308-.1238824.5683982-.4080378.6278999l-3.0614452.6380779c-.2841554.0587188-.5621167-.1260497-.6209608-.4125976-.0518758-.2536653.0851692-.5088964.3244171-.6028466.4242975-.1675443.9507979-.3202133.8586603-.7711738l-.7371006-3.6162966c0-.0007829 0-.0015659-.0007743-.0015659-.0766522-.3640567-.2965436-.4893235-.481593-.5543057-.9012449-.274804-1.4966549-.9700349-1.8435258-1.8547319-.0394876-.1009963-.0712324-.2145194-.1083972-.3186474l4.3838905-4.43209681c.2632502 1.21900277.4862386 2.56248945.5226291 3.74860971.0309706.9363695-.2369252 1.8038422-.942281 2.4231301-.1672413.1511031-.3228686.3554446-.2477649.7249817l.7378749 3.6131649c.0913633.4493948.6372204.3812809 1.0909399.3648397.2562818-.010178.4815931.1698931.5334688.4235584m-10.22727104.7719568c-.05884417.2881137-.33680543.4728823-.62096082.4141634l-2.64721325-.5519569 2.30885929-2.3354433-.22453695 1.0999992c-.09136331.4517435.43513713.6044125.86020881.7719568.23847373.0939502.37474443.3483984.32364292.6012808m3.06144524-12.16419143c.0960089.60284659.2206656 1.26362908.367776 1.93302366l-.9748001.98569327c.2578304-.99195661.4622365-2.01522997.6070241-2.91871693m7.2138303-4.15885852c-.2268598-.22939487-.5946358-.22939487-.8214956 0l-1.5918895 1.60967868c-.1231082-.42825595-.2253112-.75786428-.2833811-.94263285-.0309707-.09629887-.1285281-.15423477-.2268598-.13387891l-4.0904439.85416315-4.47602798-.93402075c-.0983317-.02113878-.19666341.03679713-.22685975.13387891-.26325022.82832687-1.38980632 4.52369815-1.4772983 7.33280662-.03097062.9340208.23847373 1.8054081.9430552 2.424696.16724132.1503202.32286865.3546617.24776491.7241988l-.06194122.3006404-3.59491405 3.6350866c-.22685975.2293949-.22685975.6004978 0 .8298927.11381701.1150889.26247596.1722419.41113491.1722419.14865894 0 .29654363-.057153.41036063-.1722419l14.83879555-15.00383373c.2260855-.22939487.2260855-.60128075 0-.83067562"></path></svg>