<svg viewBox="0 0 24 24" role="presentation" aria-hidden="true" focusable="false" style="fill: rgb(217, 57, 0);"><path d="m6.32874849 11.6781574c.75542549 0 1.34774775-.5410186 1.34774775-1.5525901 0-.82366353-.59232226-2.99008648-2.1195616-2.99008648-.91618752 0-1.67395421.77433766-1.67395421 1.68569158 0 1.12509931 1.30014346 2.856985 2.44576806 2.856985m12.63854941-4.52701758-2.1484364 2.15546165c-.0741378.29595514-.1131577.58016603-.1131577.81896583 0 1.0115715.5923223 1.5525901 1.3485281 1.5525901 1.1979113 0 2.4457681-1.8039171 2.4457681-2.85463615 0-.86202807-.6797269-1.59721822-1.5327021-1.67238143m-3.9456935 3.95859578-8.40176737 8.4292409c.37381076.7351901 1.01139611 1.2190533 2.0337178 1.2190533 1.63337347 0 2.50039597-1.4727292 3.31044927-1.569032 1.0956792-.1299698 1.8339359 1.8109636 3.6990877 1.8109636 1.9018304 0 2.5269294-1.7154437 2.5269294-3.6297567 0-2.6510691-1.1979113-5.0735168-3.1684168-6.2604691m-4.869685-1.67238146c1.0652436 0 1.3813049-1.55493892 1.3813049-2.59469666 0-1.45237246-.5267688-2.75363554-1.90651288-2.75363554-.93491708 0-1.82144947.7281436-1.82144947 1.93623562 0 1.12353341 1.11128708 3.41209658 2.34665745 3.41209658m9.3031274-4.43462942-14.95633216 15.00445588c-.11393814.1143107-.2637746.1714661-.41361107.1714661-.14983646 0-.29967292-.0571554-.41361106-.1714661-.22865668-.2294044-.22865668-.6013057 0-.83071l2.56829059-2.5766889c.31528088-3.0887381 2.37319102-6.2589031 6.0067252-6.2589031.0741378 0 .1428129.0140931.2153899.0164419l1.1479658-1.15093664c-.5704711-.46663827-.7608883-1.56041957-.7608883-2.36059458 0-1.45158951.5244276-2.75676734 1.9072933-2.75676734.8880932 0 1.8198887.69134495 1.8198887 1.93232087 0 .06811666-.0046824.14327987-.0140472.22314078l2.0649337-2.07246894c.2286567-.22940438.5993459-.22940438.8280026 0 .2286566.22940438.2286566.60130568 0 .83071007"></path></svg>