<svg viewBox="0 0 24 24" role="presentation" aria-hidden="true" focusable="false" ><path d="m16.31 10.24a2.88 2.88 0 1 1 -2.88-2.88 2.88 2.88 0 0 1 2.88 2.88" fill-rule="evenodd"></path><path d="m21.43 9.9a2.03 2.03 0 0 0 -.51-.17l-.69-.12a1.87 1.87 0 0 0 -2.53-2.6.5.5 0 0 0 .5.87.88.88 0 0 1 1.28.98.88.88 0 0 1 -1.6.21.48.48 0 0 0 -.08-.09.48.48 0 0 0 -.02-.06 4.03 4.03 0 0 0 -2.05-1.92c-.05-.02-.11-.03-.16-.05l1.91-4.76a.5.5 0 0 0 -.28-.65l-2.5-1a .5.5 0 0 0 -.37.93l2.04.81-.55 1.36-1.63-.61a.5.5 0 0 0 -.35.94l1.61.6-.86 2.15a4.13 4.13 0 0 0 -2.36.44 2.47 2.47 0 0 0 -.29-1.57 1.67 1.67 0 0 0 -1.19-.97c-.66-.05-1.17.54-1.65 1.15l-1.35 1.71c-3.24 4.1-4.86 6.15-5.47 7.84a5.66 5.66 0 0 0 1.93 6.57.5.5 0 0 0 .6-.8 4.68 4.68 0 0 1 -1.59-5.43c.55-1.54 2.14-3.55 5.32-7.56l1.35-1.71c.57-.72.76-.77.79-.77 0 0 .06-.11.4.47a2.2 2.2 0 0 1 -.41 2.26l-2.59 3.81a.5.5 0 0 0 .05.62 9.74 9.74 0 0 1 1.87 3.52.5.5 0 1 0 .96-.29 11.18 11.18 0 0 0 -1.84-3.61l.99-1.45a3.88 3.88 0 0 0 .25 1.12 3.98 3.98 0 0 0 2.18 2.21 4.16 4.16 0 0 0 1.02.28.6.6 0 0 0 .07.01.5.5 0 0 0 .07-1 3.19 3.19 0 0 1 -.78-.22 2.99 2.99 0 0 1 -1.64-1.66 2.88 2.88 0 0 1 .04-2.24 3.1 3.1 0 0 1 4.03-1.56 3.03 3.03 0 0 1 1.55 1.44.49.49 0 0 0 .1.13.48.48 0 0 0 .03.07 1.86 1.86 0 0 0 .84.76 1.86 1.86 0 0 0 -.31.7 1.84 1.84 0 0 0 .07.99 1.98 1.98 0 0 0 -2.07 1.53 1.85 1.85 0 0 0 .07.99 2.01 2.01 0 0 0 -2.32 1.5 1.82 1.82 0 0 0 .27 1.4 2.01 2.01 0 0 0 1.3.85l.24.04c-1.39 1.42-3.92 3.67-5.51 3.67a.5.5 0 0 0 0 1c2.65 0 6.45-4.19 6.87-4.67a.5.5 0 0 0 -.04-.71.49.49 0 0 0 -.26-.11l-.01-.01-1.11-.21a1 1 0 0 1 -.66-.42.83.83 0 0 1 -.12-.65 1 1 0 0 1 1.19-.71l2.2.41h.02l.31.06a.52.52 0 0 0 .1.01.5.5 0 0 0 .09-.99l-.89-.17a.98.98 0 0 1 -.64-.42.87.87 0 0 1 -.13-.67.99.99 0 0 1 1.17-.73l2.02.39a.94.94 0 0 1 .79 1 .5.5 0 1 0 .99.11 1.87 1.87 0 0 0 -.25-1.14 1.92 1.92 0 0 0 1.22-1.4 1.9 1.9 0 0 0 -1.03-2.08zm.06 1.87a.97.97 0 0 1 -1.14.71l-1.07-.19a.96.96 0 0 1 -.62-.41.86.86 0 0 1 -.13-.65.95.95 0 0 1 .95-.73 1.07 1.07 0 0 1 .2.02l1.07.19a1.03 1.03 0 0 1 .26.09.9.9 0 0 1 .5.98zm-7.04-.82a.75.75 0 1 1 -.99-.39.75.75 0 0 1 .99.39" fill="#484848"></path></svg>