<svg viewBox="0 0 24 24" role="presentation" aria-hidden="true" focusable="false" style="fill: rgb(217, 57, 0);"><path d="m4.50336409 19.0040004c-.00078342.0015657-.00313367.0015657-.00470051.0031313l-.00470052.0046968s-.00078342 0-.00078342-.0007828c-.11359577.1080272-.25931174.165172-.4050277.165172-.15041648 0-.30083296-.0579276-.41599558-.1722173-.22954181-.2293621-.22954181-.6011949 0-.830557l.29456561-.294335-.01645181-2.8055764c-.00156683-.4344572.36272308-.7225298.70977777-.7248782l2.85791311-.0172218 6.46007446-6.45501741c-.0195855-.03522626-.0321202-.08141181-.0564062-.11037563-.2311087-.26928523-.4692681-.29042099-1.274623-.2262309-.6000991.04618554-1.3490478.10333037-2.0846784-.21605443-2.20532494-.96285126-2.1630203-3.12339554-2.14421824-4.0478893.00078341-.04618555.00235025-.0790634.00235025-.1189865.00783419-.04148871.03917096-.07436656.0814756-.07436656h2.10974779c.0446549 0 .0861761.03679188.0830424.10019915-.0070507 1.0340866-.0329036 1.6853811.7732348 2.03607815.2162236.09471951.5985322.0665385 1.0051267.03522626.8507933-.06732131 2.1371675-.16125801 3.1438612.98476982l3.0694362-3.06703351c.2295419-.22936213.601666-.22936213.8312078 0s.2295418.60119493 0 .83055706zm15.99663591-7.7161177v1.8975215c0 .10881-.0877429.1972671-.1958548.1972671-.2655791 0-1.6702496.0007828-1.9060588.0007828-1.0059102 0-3.033399-.0939367-3.9547-2.1401913-.0571896-.1275974-.0869595-.258326-.1237802-.3882718l2.1042639-2.10418222c.0023502.15734399.0031337.31077394.0015668.45715865-.0023502.25519472-.0117513.85717247.0908767 1.08966577.3055334.6779099.9024988.7796747 2.0235717.7929824h1.7642599c.1081119 0 .1958548.0884571.1958548.1972671zm-4.3088054 7.2049455-.0156684-2.7758297 2.8774986-.0133077.0125347 2.7758297zm4.283736-3.5187125c-.0023503-.395317-.3227687-.7154846-.7199622-.7154846l-8.8957246.0532308-5.69310709 5.6878676 14.62408549-.0023484c.4261801-.0093936.7113446-.3483486.7089944-.7240954l-.0086176-1.661897z"></path></svg>