<?xml version="1.0" encoding="utf-8"?>
<!-- Generator: Adobe Illustrator 22.0.0, SVG Export Plug-In . SVG Version: 6.00 Build 0)  -->
<svg version="1.1" id="Layer_1" xmlns="http://www.w3.org/2000/svg" xmlns:xlink="http://www.w3.org/1999/xlink" x="0px" y="0px"
	 viewBox="0 0 500 100" style="enable-background:new 0 0 500 100;" xml:space="preserve">
<path d="M97.7,37.9c0.9,2.9,0.2,5.2-2.1,6.9L72.2,62.7l9,29c1.1,4-1.9,7.8-5.6,7.8c-1.2,0-2.4-0.4-3.4-1.2L48.9,80.4L25.5,98.2
	c-2.6,1.8-6.1,1.2-8.1-1.2c-1.2-1.7-1.6-3.4-0.8-5.3l8.9-28.8L2,44.9c-2.2-1.8-2.9-4-2-6.9c0.8-2.5,3-4.1,5.4-4.1h29l9-28.8
	c0.7-2.4,2.9-4,5.4-4c2.6,0,4.9,1.8,5.6,4.2l9,28.6h29C94.7,33.8,96.9,35.5,97.7,37.9L97.7,37.9z"/>
<path d="M198.2,37.9c0.9,2.9,0.2,5.2-2.1,6.9l-23.4,17.8l9,29c1.1,4-1.9,7.8-5.6,7.8c-1.2,0-2.4-0.4-3.4-1.2l-23.4-17.8L126,98.2
	c-2.6,1.8-6.1,1.2-8.1-1.2c-1.2-1.7-1.6-3.4-0.8-5.3l8.9-28.8l-23.5-18c-2.2-1.8-2.9-4-2-6.9c0.8-2.5,3-4.1,5.4-4.1h29l9-28.8
	c0.7-2.4,2.9-4,5.4-4c2.6,0,4.9,1.8,5.6,4.2l9,28.6h29C195.2,33.8,197.3,35.5,198.2,37.9L198.2,37.9z"/>
<path d="M298.7,37.9c0.9,2.9,0.2,5.2-2.1,6.9l-23.4,17.8l9,29c1.1,4-1.9,7.8-5.6,7.8c-1.2,0-2.4-0.4-3.4-1.2l-23.4-17.8l-23.4,17.8
	c-2.6,1.8-6.1,1.2-8.1-1.2c-1.2-1.7-1.6-3.4-0.8-5.3l8.9-28.8l-23.5-18c-2.2-1.8-2.9-4-2-6.9c0.8-2.5,3-4.1,5.4-4.1h29l9-28.8
	c0.7-2.4,2.9-4,5.4-4c2.6,0,4.9,1.8,5.6,4.2l9,28.6h29C295.7,33.8,297.8,35.5,298.7,37.9L298.7,37.9z"/>
<path d="M399.1,37.9c0.9,2.9,0.2,5.2-2.1,6.9l-23.4,17.8l9,29c1.1,4-1.9,7.8-5.6,7.8c-1.2,0-2.4-0.4-3.4-1.2l-23.4-17.8l-23.4,17.8
	c-2.6,1.8-6.1,1.2-8.1-1.2c-1.2-1.7-1.6-3.4-0.8-5.3l8.9-28.8l-23.5-18c-2.2-1.8-2.9-4-2-6.9c0.8-2.5,3-4.1,5.4-4.1h29l9-28.8
	c0.7-2.4,2.9-4,5.4-4c2.6,0,4.9,1.8,5.6,4.2l9,28.6h29C396.1,33.8,398.3,35.5,399.1,37.9L399.1,37.9z"/>
<path d="M499.6,37.9c0.9,2.9,0.2,5.2-2.1,6.9l-23.4,17.8l9,29c1.1,4-1.9,7.8-5.6,7.8c-1.2,0-2.4-0.4-3.4-1.2l-23.4-17.8l-23.4,17.8
	c-2.6,1.8-6.1,1.2-8.1-1.2c-1.2-1.7-1.6-3.4-0.8-5.3l8.9-28.8l-23.5-18c-2.2-1.8-2.9-4-2-6.9c0.8-2.5,3-4.1,5.4-4.1h29l9-28.8
	c0.7-2.4,2.9-4,5.4-4c2.6,0,4.9,1.8,5.6,4.2l9,28.6h29C496.6,33.8,498.8,35.5,499.6,37.9L499.6,37.9z"/>
</svg>
