<svg viewBox="0 0 40 24" role="presentation" aria-hidden="true" focusable="false" ><path fill="#DBDBDB" d="M2.5,0 L37.5,0 C38.8807106,0 40,1.1192894 40,2.5 L40,21.5 C40,22.8807125 38.8807106,24 37.5,24 L2.5,24 C1.119288,24 0,22.8807125 0,21.5 L0,2.5 C0,1.1192894 1.119288,0 2.5,0 Z M2.5,1 C1.671573,1 1,1.6715698 1,2.5 L1,21.5 C1,22.3284264 1.671573,23 2.5,23 L37.5,23 C38.3284302,23 39,22.3284264 39,21.5 L39,2.5 C39,1.6715698 38.3284302,1 37.5,1 L2.5,1 Z"></path><path fill="#FFFFFF" d="M39,21.5 C39,22.3284302 38.3284302,23 37.5,23 L2.5,23 C1.6715698,23 1,22.3284302 1,21.5 L1,2.5 C1,1.6715698 1.6715698,1 2.5,1 L37.5,1 C38.3284302,1 39,1.6715698 39,2.5 L39,21.5 Z"></path><path fill="#122D98" d="M16.6103927,8.14763354 L13.2967874,16.0531857 L11.1349763,16.0531857 L9.50395139,9.74350943 C9.40435575,9.35450061 9.31882068,9.2127233 9.01769035,9.04868109 C8.52674247,8.78153045 7.71474513,8.53195668 7,8.37611881 L7.04804072,8.14177614 L10.5280288,8.14177614 C10.7546265,8.14270531 10.9734557,8.22437373 11.1452523,8.37212092 C11.3170489,8.51986811 11.4305645,8.7240169 11.4653995,8.94791608 L12.3266088,13.5175981 L14.4544402,8.13708812 L16.6103927,8.14763354 Z M25.0807084,13.4719013 C25.0889104,11.3850798 22.1959502,11.2702519 22.2158693,10.3387398 C22.2217279,10.0551852 22.4923936,9.75288314 23.0829372,9.67672178 C23.7744824,9.61014502 24.4711831,9.73159311 25.0994558,10.0282358 L25.4591718,8.351514 C24.8473031,8.12148089 24.1993456,8.00244476 23.5457639,8 C21.5245584,8 20.1020985,9.07445995 20.0892096,10.6129207 C20.0763208,11.7506544 21.1050851,12.385723 21.8795876,12.7641864 C22.6763526,13.1520235 22.9435033,13.4004267 22.9411599,13.7472539 C22.9411599,14.27804 22.3049195,14.511211 21.7167194,14.5205847 C20.6891268,14.535817 20.0927247,14.2428886 19.6170091,14.0214348 L19.2467477,15.7532271 C19.7248068,15.9723375 20.6071069,16.1633268 21.5210433,16.1727005 C23.6699655,16.1727005 25.0748498,15.1111282 25.0818801,13.4683861 L25.0807084,13.4719013 Z M30.420206,16.0461554 L32.3113514,16.0461554 L30.6604073,8.14060326 L28.9145544,8.14060326 C28.7273146,8.13932375 28.5440587,8.19455597 28.3888066,8.29907866 C28.2334374,8.40360134 28.1133368,8.55255071 28.0439714,8.72645992 L24.9752542,16.052014 L27.1230047,16.052014 L27.5495084,14.870927 L30.1729745,14.870927 L30.420206,16.0461554 Z M28.1388802,13.2445889 L29.2156847,10.276639 L29.8296625,13.2516191 L28.1388802,13.2445889 Z M19.5349892,8.14060326 L17.8442069,16.0461554 L15.796052,16.0461554 L17.488006,8.14060326 L19.5349892,8.14060326 Z"></path></svg>